<svg width="41" height="53" viewBox="0 0 41 53" fill="none" xmlns="http://www.w3.org/2000/svg">
<path d="M7.32779 48.3513C14.9479 54.5495 26.0558 54.5495 33.6729 48.3513C41.293 42.1531 43.2258 31.5441 38.259 23.1875L23.9385 1.81037C22.7085 -0.0299523 20.1694 -0.554076 18.2688 0.641397C17.7917 0.942402 17.3827 1.34062 17.0681 1.81037L2.73877 23.1875C-2.22511 31.5441 -0.292275 42.1531 7.32779 48.3513Z" fill="#A9B3CC"/>
<path d="M15.0724 38V35.4716L20.3778 30.8267C20.7756 30.4669 21.1141 30.1378 21.3935 29.8395C21.6728 29.5365 21.8859 29.2334 22.0327 28.9304C22.1795 28.6226 22.2528 28.2888 22.2528 27.929C22.2528 27.5265 22.1652 27.1832 21.9901 26.8991C21.8149 26.6103 21.5734 26.3878 21.2656 26.2315C20.9579 26.0753 20.6051 25.9972 20.2074 25.9972C19.8049 25.9972 19.4522 26.08 19.1491 26.2457C18.8461 26.4067 18.6094 26.6411 18.4389 26.9489C18.2732 27.2566 18.1903 27.6307 18.1903 28.071H14.8594C14.8594 27.0814 15.0819 26.2268 15.527 25.5071C15.9721 24.7874 16.5971 24.2334 17.402 23.8452C18.2116 23.4522 19.1515 23.2557 20.2216 23.2557C21.3248 23.2557 22.2836 23.4403 23.098 23.8097C23.9124 24.179 24.5421 24.6951 24.9872 25.358C25.437 26.0161 25.6619 26.7808 25.6619 27.652C25.6619 28.206 25.5507 28.7552 25.3281 29.2997C25.1056 29.8442 24.7055 30.4455 24.1278 31.1037C23.5549 31.7618 22.7405 32.5502 21.6847 33.4688L19.9446 35.0739V35.1662H25.8395V38H15.0724Z" fill="white"/>
</svg>
