<svg width="41" height="53" viewBox="0 0 41 53" fill="none" xmlns="http://www.w3.org/2000/svg">
<path d="M7.32779 48.3513C14.9479 54.5495 26.0558 54.5495 33.6729 48.3513C41.293 42.1531 43.2258 31.5441 38.259 23.1875L23.9385 1.81037C22.7085 -0.0299523 20.1694 -0.554076 18.2688 0.641397C17.7917 0.942402 17.3827 1.34062 17.0681 1.81037L2.73877 23.1875C-2.22511 31.5441 -0.292275 42.1531 7.32779 48.3513Z" fill="#E1996D"/>
<path d="M20.6051 38.1989C19.4972 38.1989 18.5147 38.0095 17.6577 37.6307C16.8054 37.2472 16.133 36.7192 15.6406 36.0469C15.1482 35.3745 14.8973 34.6004 14.8878 33.7244H18.4247C18.4389 34.0417 18.5407 34.3234 18.7301 34.5696C18.9195 34.8111 19.1776 35.0005 19.5043 35.1378C19.831 35.2751 20.2027 35.3438 20.6193 35.3438C21.036 35.3438 21.4029 35.2704 21.7202 35.1236C22.0421 34.9721 22.2931 34.7661 22.473 34.5057C22.6529 34.2405 22.7405 33.9375 22.7358 33.5966C22.7405 33.2557 22.6435 32.9527 22.4446 32.6875C22.2457 32.4223 21.964 32.2164 21.5994 32.0696C21.2396 31.9228 20.8134 31.8494 20.321 31.8494H18.9077V29.3494H20.321C20.7519 29.3494 21.1307 29.2784 21.4574 29.1364C21.7888 28.9943 22.0469 28.7955 22.2315 28.5398C22.4162 28.2794 22.5062 27.9811 22.5014 27.6449C22.5062 27.3182 22.428 27.0317 22.267 26.7855C22.1108 26.5346 21.8906 26.3404 21.6065 26.2031C21.3272 26.0658 21.0028 25.9972 20.6335 25.9972C20.2453 25.9972 19.8925 26.0658 19.5753 26.2031C19.2628 26.3404 19.0142 26.5346 18.8295 26.7855C18.6449 27.0365 18.5478 27.3277 18.5384 27.6591H15.179C15.1884 26.7926 15.4299 26.0303 15.9034 25.3722C16.3769 24.7093 17.0208 24.1908 17.8352 23.8168C18.6544 23.4427 19.5871 23.2557 20.6335 23.2557C21.6752 23.2557 22.5914 23.438 23.3821 23.8026C24.1728 24.1671 24.7884 24.6643 25.2287 25.294C25.669 25.919 25.8892 26.6269 25.8892 27.4176C25.8939 28.2367 25.6264 28.9115 25.0866 29.4418C24.5516 29.9721 23.8627 30.2988 23.0199 30.4219V30.5355C24.1468 30.6681 24.9967 31.0327 25.5696 31.6293C26.1473 32.2259 26.4337 32.9716 26.429 33.8665C26.429 34.7093 26.1804 35.4574 25.6832 36.1108C25.1908 36.7595 24.5043 37.2708 23.6236 37.6449C22.7476 38.0142 21.7415 38.1989 20.6051 38.1989Z" fill="white"/>
</svg>
