<svg width="64" height="64" viewBox="0 0 64 64" fill="none" xmlns="http://www.w3.org/2000/svg">
<circle cx="32" cy="32" r="32" fill="#FFDFDE"/>
<g clip-path="url(#clip0_1352_209)">
<path d="M20 27.9993C20 27.6457 20.1405 27.3066 20.3905 27.0565C20.6406 26.8065 20.9797 26.666 21.3333 26.666H42.6667C43.0203 26.666 43.3594 26.8065 43.6095 27.0565C43.8595 27.3066 44 27.6457 44 27.9993V30.666C44 31.0196 43.8595 31.3588 43.6095 31.6088C43.3594 31.8589 43.0203 31.9993 42.6667 31.9993H21.3333C20.9797 31.9993 20.6406 31.8589 20.3905 31.6088C20.1405 31.3588 20 31.0196 20 30.666V27.9993Z" stroke="#FF2A23" stroke-width="3" stroke-linecap="round" stroke-linejoin="round"/>
<path d="M32 26.666V43.9993" stroke="#FF2A23" stroke-width="3" stroke-linecap="round" stroke-linejoin="round"/>
<path d="M41.3333 32V41.3333C41.3333 42.0406 41.0523 42.7189 40.5522 43.219C40.0521 43.719 39.3739 44 38.6666 44H25.3333C24.626 44 23.9478 43.719 23.4477 43.219C22.9476 42.7189 22.6666 42.0406 22.6666 41.3333V32" stroke="#FF2A23" stroke-width="3" stroke-linecap="round" stroke-linejoin="round"/>
<path d="M26 26.6672C25.1159 26.6672 24.2681 26.3161 23.6429 25.6909C23.0178 25.0658 22.6666 24.218 22.6666 23.3339C22.6666 22.4499 23.0178 21.602 23.6429 20.9769C24.2681 20.3518 25.1159 20.0006 26 20.0006C27.2862 19.9782 28.5467 20.6023 29.6169 21.7915C30.6872 22.9807 31.5177 24.6798 32 26.6672C32.4823 24.6798 33.3127 22.9807 34.383 21.7915C35.4533 20.6023 36.7137 19.9782 38 20.0006C38.884 20.0006 39.7319 20.3518 40.357 20.9769C40.9821 21.602 41.3333 22.4499 41.3333 23.3339C41.3333 24.218 40.9821 25.0658 40.357 25.6909C39.7319 26.3161 38.884 26.6672 38 26.6672" stroke="#FF2A23" stroke-width="3" stroke-linecap="round" stroke-linejoin="round"/>
</g>
<defs>
<clipPath id="clip0_1352_209">
<rect width="32" height="32" fill="white" transform="translate(16 16)"/>
</clipPath>
</defs>
</svg>
