<?xml version="1.0" encoding="UTF-8"?> <svg xmlns="http://www.w3.org/2000/svg" width="2480" height="697" viewBox="0 0 2480 697" fill="none"> <path fill-rule="evenodd" clip-rule="evenodd" d="M380.522 527.615H272.537C104.101 527.615 226.471 168.406 368.277 168.406H538.886C566.233 168.406 614.462 173.457 638.223 105.525L674.935 0H440.984C314.291 0 215.671 44.8065 144.409 119.983C21.3119 248.633 -20.4309 449.56 9.07807 545.679C37.1525 634.585 113.456 693.122 232.946 694.566L325.807 695.294H440.267L468.341 610.732C489.213 550.741 442.419 527.615 380.522 527.615V527.615ZM1694.94 378.729L1730.22 263.808H1353.74C1291.12 263.808 1263.04 281.154 1252.24 317.293L1216.97 432.214H1593.45C1656.08 432.214 1684.15 414.867 1694.94 378.729V378.729ZM1160.83 581.1L1125.55 696.011H1502.02C1563.93 696.011 1592.72 678.674 1603.52 642.536L1638.8 527.615H1262.32C1200.42 527.615 1172.34 544.962 1160.83 581.1ZM1782.77 115.638L1818.04 0.727468H1441.56C1378.94 0.727468 1350.86 18.0639 1340.06 54.2021L1304.79 169.123H1681.27C1743.18 169.123 1771.24 151.776 1782.77 115.638ZM1214.09 138.774C1198.26 31.8041 1141.39 0.727468 1003.18 0.727468H751.238L604.39 432.214H697.251C752.672 432.214 780.747 432.931 810.266 353.431L871.445 168.406H965.024C1044.93 168.406 1026.93 268.869 986.623 366.433C950.628 452.45 888.003 528.333 812.417 528.333H656.215C593.59 528.333 564.799 545.679 553.282 581.818L514.408 696.738H628.858L741.156 696.011C840.492 695.294 921.836 688.07 1016.86 602.054C1117.63 510.269 1234.25 274.648 1214.09 138.774V138.774ZM2479.57 0H2261.46L2056.3 218.991C2032.55 244.289 2008.07 269.587 1984.32 299.218H1982.16L2084.37 0H1906.57L1666.88 696.011H1844.67L1920.97 477.02L2000.15 409.805L2062.79 607.843C2082.21 669.279 2102.38 696.011 2145.57 696.011H2281.61L2141.97 307.169L2479.57 0Z" fill="#00B33C"></path> </svg> 