<svg width="38" height="38" viewBox="0 0 38 38" fill="none" xmlns="http://www.w3.org/2000/svg">
<g clip-path="url(#clip0_94_2233)">
<path d="M4.75 19C4.75 20.8713 5.11859 22.7243 5.83472 24.4532C6.55085 26.1821 7.60049 27.753 8.92373 29.0763C10.247 30.3995 11.8179 31.4492 13.5468 32.1653C15.2757 32.8814 17.1287 33.25 19 33.25C20.8713 33.25 22.7243 32.8814 24.4532 32.1653C26.1821 31.4492 27.753 30.3995 29.0763 29.0763C30.3995 27.753 31.4492 26.1821 32.1653 24.4532C32.8814 22.7243 33.25 20.8713 33.25 19C33.25 17.1287 32.8814 15.2757 32.1653 13.5468C31.4492 11.8179 30.3995 10.247 29.0763 8.92373C27.753 7.60049 26.1821 6.55085 24.4532 5.83472C22.7243 5.11859 20.8713 4.75 19 4.75C17.1287 4.75 15.2757 5.11859 13.5468 5.83472C11.8179 6.55085 10.247 7.60049 8.92373 8.92373C7.60049 10.247 6.55085 11.8179 5.83472 13.5468C5.11859 15.2757 4.75 17.1287 4.75 19Z" stroke="black" stroke-width="1.5" stroke-linecap="round" stroke-linejoin="round"/>
<path d="M14.25 19H23.75" stroke="black" stroke-width="1.5" stroke-linecap="round" stroke-linejoin="round"/>
</g>
<defs>
<clipPath id="clip0_94_2233">
<rect width="38" height="38" fill="white"/>
</clipPath>
</defs>
</svg>
