<svg width="24" height="25" viewBox="0 0 24 25" fill="none" xmlns="http://www.w3.org/2000/svg">
<g clip-path="url(#clip0_110_2913)">
<path d="M19.4998 13.0719L11.9998 20.4999L4.49981 13.0719C4.00512 12.5905 3.61546 12.0119 3.35536 11.3726C3.09527 10.7332 2.97037 10.0469 2.98855 9.35687C3.00673 8.66685 3.16758 7.98807 3.46097 7.36327C3.75436 6.73847 4.17395 6.18119 4.6933 5.72651C5.21265 5.27184 5.82052 4.92962 6.47862 4.72141C7.13673 4.51321 7.83082 4.44352 8.51718 4.51673C9.20354 4.58995 9.86731 4.80449 10.4667 5.14684C11.0661 5.48919 11.5881 5.95193 11.9998 6.50593C12.4133 5.95595 12.9359 5.49725 13.5349 5.15854C14.1339 4.81982 14.7963 4.60838 15.4807 4.53745C16.1652 4.46652 16.8569 4.53763 17.5126 4.74632C18.1683 4.95502 18.7738 5.29681 19.2914 5.7503C19.8089 6.20379 20.2272 6.75922 20.5202 7.38182C20.8132 8.00443 20.9746 8.68082 20.9941 9.36864C21.0137 10.0565 20.8911 10.7409 20.6339 11.3792C20.3768 12.0174 19.9907 12.5958 19.4998 13.0779" stroke="#FF2A23" stroke-width="1.75" stroke-linecap="round" stroke-linejoin="round"/>
</g>
<defs>
<clipPath id="clip0_110_2913">
<rect width="24" height="24" fill="white" transform="translate(0 0.5)"/>
</clipPath>
</defs>
</svg>
