<svg width="54" height="48" viewBox="0 0 54 48" fill="none" xmlns="http://www.w3.org/2000/svg">
<path d="M48 23.9818C51.3137 23.9818 54 21.2976 54 17.9864C54 14.6752 51.3137 11.991 48 11.991C44.6863 11.991 42 14.6752 42 17.9864C42 21.2976 44.6863 23.9818 48 23.9818Z" fill="#FF2A23"/>
<path d="M6 23.9818C9.31371 23.9818 12 21.2976 12 17.9864C12 14.6752 9.31371 11.991 6 11.991C2.68629 11.991 0 14.6752 0 17.9864C0 21.2976 2.68629 23.9818 6 23.9818Z" fill="#FF2A23"/>
<path d="M18 11.9909C21.3137 11.9909 24 9.30662 24 5.99543C24 2.68425 21.3137 0 18 0C14.6863 0 12 2.68425 12 5.99543C12 9.30662 14.6863 11.9909 18 11.9909Z" fill="#FF2A23"/>
<path d="M36 11.9909C39.3137 11.9909 42 9.30662 42 5.99543C42 2.68425 39.3137 0 36 0C32.6863 0 30 2.68425 30 5.99543C30 9.30662 32.6863 11.9909 36 11.9909Z" fill="#FF2A23"/>
<path d="M27 16.9871C25.0496 16.9878 23.1523 17.6215 21.5936 18.7929C20.0349 19.9643 18.8992 21.61 18.3575 23.4821C17.557 26.2357 15.6995 28.5614 13.19 29.9522C11.3682 30.9228 9.99249 32.5596 9.35049 34.5203C8.70849 36.481 8.84992 38.6137 9.74522 40.4726C10.6405 42.3316 12.2203 43.7726 14.1543 44.4946C16.0883 45.2165 18.2268 45.1633 20.1225 44.3462C24.5279 42.5413 29.4671 42.5413 33.8725 44.3462C35.7682 45.1633 37.9066 45.2165 39.8406 44.4946C41.7746 43.7726 43.3544 42.3316 44.2497 40.4726C45.145 38.6137 45.2865 36.481 44.6445 34.5203C44.0025 32.5596 42.6267 30.9228 40.805 29.9522C38.2968 28.5611 36.4411 26.2352 35.6425 23.4821C35.1007 21.61 33.965 19.9643 32.4063 18.7929C30.8476 17.6215 28.9503 16.9878 27 16.9871Z" fill="#FF2A23" stroke="#FF2A23" stroke-width="5" stroke-linecap="round" stroke-linejoin="round"/>
</svg>
