<svg width="24" height="25" viewBox="0 0 24 25" fill="none" xmlns="http://www.w3.org/2000/svg">
<g clip-path="url(#clip0_110_1678)">
<path d="M18.3641 5.13606C20.0164 6.78819 20.9614 9.01817 20.9993 11.3545C21.0372 13.6908 20.1649 15.9502 18.5671 17.6551L18.3641 17.8651L14.1211 22.1071C13.5827 22.6451 12.8599 22.9584 12.0992 22.9834C11.3385 23.0085 10.5967 22.7435 10.0241 22.2421L9.88006 22.1071L5.63606 17.8641C3.94822 16.1762 3 13.887 3 11.5001C3 9.11309 3.94822 6.82389 5.63606 5.13606C7.32389 3.44822 9.61309 2.5 12.0001 2.5C14.387 2.5 16.6762 3.44822 18.3641 5.13606ZM12.0001 8.50006C11.6061 8.50006 11.216 8.57765 10.852 8.72842C10.488 8.87918 10.1573 9.10016 9.87873 9.37873C9.60016 9.65731 9.37918 9.98803 9.22842 10.352C9.07765 10.716 9.00006 11.1061 9.00006 11.5001C9.00006 11.894 9.07765 12.2841 9.22842 12.6481C9.37918 13.0121 9.60016 13.3428 9.87873 13.6214C10.1573 13.9 10.488 14.1209 10.852 14.2717C11.216 14.4225 11.6061 14.5001 12.0001 14.5001C12.7957 14.5001 13.5588 14.184 14.1214 13.6214C14.684 13.0588 15.0001 12.2957 15.0001 11.5001C15.0001 10.7044 14.684 9.94134 14.1214 9.37873C13.5588 8.81613 12.7957 8.50006 12.0001 8.50006Z" fill="#4E5355"/>
</g>
<defs>
<clipPath id="clip0_110_1678">
<rect width="24" height="24" fill="white" transform="translate(0 0.5)"/>
</clipPath>
</defs>
</svg>
