<svg width="64" height="64" viewBox="0 0 64 64" fill="none" xmlns="http://www.w3.org/2000/svg">
<circle cx="32" cy="32" r="32" fill="#FFDFDE"/>
<g clip-path="url(#clip0_115_9721)">
<path d="M30 25C30 24.4696 30.2107 23.9609 30.5858 23.5858C30.9609 23.2107 31.4696 23 32 23C32.5304 23 33.0391 23.2107 33.4142 23.5858C33.7893 23.9609 34 24.4696 34 25C35.1484 25.543 36.1274 26.3883 36.8321 27.4453C37.5367 28.5023 37.9404 29.7311 38 31V34C38.0753 34.6217 38.2954 35.2171 38.6428 35.7381C38.9902 36.2592 39.4551 36.6914 40 37H24C24.5449 36.6914 25.0098 36.2592 25.3572 35.7381C25.7046 35.2171 25.9247 34.6217 26 34V31C26.0596 29.7311 26.4633 28.5023 27.1679 27.4453C27.8726 26.3883 28.8516 25.543 30 25Z" stroke="#FF2A23" stroke-width="1.75" stroke-linecap="round" stroke-linejoin="round"/>
<path d="M29 37V38C29 38.7956 29.3161 39.5587 29.8787 40.1213C30.4413 40.6839 31.2044 41 32 41C32.7956 41 33.5587 40.6839 34.1213 40.1213C34.6839 39.5587 35 38.7956 35 38V37" stroke="#FF2A23" stroke-width="1.75" stroke-linecap="round" stroke-linejoin="round"/>
</g>
<defs>
<clipPath id="clip0_115_9721">
<rect width="24" height="24" fill="white" transform="translate(20 20)"/>
</clipPath>
</defs>
</svg>
