<svg width="64" height="64" viewBox="0 0 64 64" fill="none" xmlns="http://www.w3.org/2000/svg">
<circle cx="32" cy="32" r="32" fill="#FFDFDE"/>
<g clip-path="url(#clip0_1352_189)">
<path d="M40.384 30.5417C40.2906 30.3584 40.191 30.1782 40.0853 30.0017L33.5653 20.3217C33.0053 19.4884 31.8493 19.2511 30.984 19.7924C30.7668 19.9287 30.5805 20.109 30.4373 20.3217L23.9133 30.0017C21.6533 33.7857 22.5333 38.5897 26.0026 41.3964C27.4612 42.5727 29.2353 43.2909 31.1013 43.4604" stroke="#FF2A23" stroke-width="3" stroke-linecap="round" stroke-linejoin="round"/>
<path d="M40 44.8328L44.4667 40.4542C44.7406 40.1884 44.9585 39.8704 45.1075 39.519C45.2564 39.1676 45.3335 38.7899 45.3341 38.4082C45.3348 38.0266 45.2589 37.6486 45.1111 37.2968C44.9632 36.9449 44.7464 36.6262 44.4733 36.3595C43.9162 35.8146 43.1683 35.5089 42.389 35.5074C41.6097 35.5059 40.8606 35.8088 40.3013 36.3515L40.0027 36.6448L39.7053 36.3515C39.1482 35.807 38.4006 35.5015 37.6216 35.5C36.8426 35.4985 36.0938 35.8012 35.5347 36.3435C35.2607 36.6092 35.0427 36.9271 34.8936 37.2785C34.7445 37.6298 34.6673 38.0075 34.6665 38.3891C34.6658 38.7708 34.7415 39.1488 34.8892 39.5007C35.037 39.8526 35.2537 40.1714 35.5267 40.4382L40 44.8328Z" stroke="#FF2A23" stroke-width="3" stroke-linecap="round" stroke-linejoin="round"/>
</g>
<defs>
<clipPath id="clip0_1352_189">
<rect width="32" height="32" fill="white" transform="translate(16 15.5)"/>
</clipPath>
</defs>
</svg>
