<svg width="42" height="42" viewBox="0 0 42 42" fill="none" xmlns="http://www.w3.org/2000/svg">
<rect x="0.5" y="0.5" width="41" height="41" rx="20.5" stroke="#37AEE2"/>
<path d="M9.30197 21.4425C11.348 20.3538 13.632 19.4452 15.766 18.532C19.4374 17.0362 23.1233 15.5663 26.8465 14.1978C27.5708 13.9646 28.8724 13.7366 29 14.7735C28.9301 16.2413 28.6427 17.7005 28.4454 19.1597C27.9449 22.3686 27.3665 25.5665 26.8023 28.7648C26.608 29.8302 25.2265 30.3817 24.3423 29.6999C22.2178 28.3137 20.0769 26.941 17.9795 25.5228C17.2925 24.8484 17.9296 23.8799 18.5432 23.3984C20.293 21.7326 22.1488 20.3174 23.8071 18.5656C24.2544 17.5221 22.9328 18.4015 22.4968 18.671C20.1012 20.2656 17.7643 21.9575 15.2387 23.3589C13.9486 24.0449 12.4449 23.4587 11.1554 23.0759C9.99921 22.6135 8.30504 22.1476 9.30197 21.4425Z" fill="#37AEE2"/>
</svg>
